<?xml version="1.0" encoding="UTF-8"?>
<svg id="Layer_1" data-name="Layer 1" xmlns="http://www.w3.org/2000/svg" viewBox="0 0 91.27 57.63">
  <defs>
    <style>
      .cls-1, .cls-2 {
        fill: #e8464e;
      }

      .cls-3 {
        fill: #cad7e5;
      }

      .cls-4 {
        letter-spacing: 0em;
      }

      .cls-2 {
        font-family: ITCAvantGardePro-Bk, 'ITC Avant Garde Gothic Pro';
        font-size: 3.16px;
      }

      .cls-5 {
        letter-spacing: 0em;
      }

      .cls-6 {
        letter-spacing: -.1em;
      }
    </style>
  </defs>
  <g>
    <path class="cls-1" d="m54.35,42.69l-1.57-4.67h-11.21l-1.7,4.67h-8.86l12.96-32.29h6.5l12.83,32.29h-8.94Zm-7.07-22.21l-.13-.04-3.32,11.04h6.76l-3.32-11Z"/>
    <g>
      <path class="cls-3" d="m55.67,20.39l5.47-2.26-.57-1.39,1.58-.65,1.89,4.57-1.58.65-.57-1.38-5.47,2.26-.74-1.8Z"/>
      <path class="cls-3" d="m60.46,22.46c2.18-.9,4.47,0,5.35,2.14s-.05,4.38-2.07,5.21-4.37-.09-5.21-2.11c-.81-1.96-.16-4.38,1.93-5.24Zm2.48,5.57c1.1-.46,1.76-1.65,1.29-2.78s-1.73-1.52-2.85-1.06c-1.16.48-1.77,1.65-1.29,2.81s1.72,1.51,2.85,1.04Z"/>
      <path class="cls-3" d="m61.97,35.63l1.6-2.57v-.02s-2.28.94-2.28.94l-.71-1.72,7.05-2.91.95,2.3c.3.73.44,1.33.43,1.77-.03.9-.64,1.78-1.64,2.19-1.11.46-2.3.17-2.94-.84l-1.61,2.9-.85-2.06Zm3.1-2.43c.29.71.81,1.01,1.48.74.61-.25.76-.85.48-1.53l-.28-.69-1.96.81.28.67Z"/>
      <path class="cls-3" d="m63.14,38.48l7.05-2.91,1.62,3.91-1.58.65-.9-2.19-1.09.45.88,2.12-1.58.65-.88-2.12-1.21.5.9,2.19-1.58.65-1.62-3.91Z"/>
    </g>
    <g>
      <path class="cls-3" d="m34.46,31.41l-5.48-2.2-.56,1.39-1.58-.64,1.84-4.58,1.58.64-.56,1.38,5.48,2.2-.72,1.8Z"/>
      <path class="cls-3" d="m37.37,24.3l-2.94.72v.02s2.28.92,2.28.92l-.7,1.73-7.07-2.84.93-2.31c.3-.74.62-1.26.93-1.57.65-.63,1.7-.83,2.7-.42,1.12.45,1.77,1.49,1.52,2.65l3.18-.95-.83,2.06Zm-3.91-.43c.29-.72.13-1.29-.55-1.56-.61-.25-1.14.07-1.41.75l-.28.69,1.97.79.27-.67Z"/>
      <path class="cls-3" d="m35.01,20.47c-2.19-.88-3.2-3.12-2.33-5.27s3.1-3.1,5.12-2.28c2.09.84,3.06,3.12,2.25,5.15-.79,1.97-2.95,3.24-5.04,2.4Zm2.12-5.72c-1.11-.45-2.41-.05-2.87,1.09s.17,2.3,1.29,2.75,2.42.05,2.89-1.1c.45-1.12-.18-2.28-1.31-2.74Z"/>
      <path class="cls-3" d="m42.22,12.12l-8.02-.48.75-1.85,5.53.57v-.02s-4.38-3.43-4.38-3.43l.75-1.86,6.12,5.21-.75,1.86Z"/>
    </g>
  </g>
  <g>
    <path class="cls-3" d="m16.3,42.51v-7.55h1.93v7.55h-1.93Z"/>
    <path class="cls-3" d="m19.65,42.51v-7.55h1.93v5.85h2.23v1.69h-4.16Z"/>
  </g>
  <text class="cls-2" transform="translate(15.84 46.38)"><tspan x="0" y="0">Giuseppe </tspan><tspan class="cls-6" x="15.82" y="0">V</tspan><tspan class="cls-4" x="17.71" y="0">e</tspan><tspan class="cls-5" x="19.76" y="0">r</tspan><tspan x="20.69" y="0">di</tspan></text>
</svg>