<?xml version="1.0" encoding="utf-8"?>
<!-- Generator: Adobe Illustrator 19.0.0, SVG Export Plug-In . SVG Version: 6.00 Build 0)  -->
<svg version="1.1" id="layer" xmlns="http://www.w3.org/2000/svg" xmlns:xlink="http://www.w3.org/1999/xlink" x="0px" y="0px"
	 viewBox="-153 -46 652 652" style="enable-background:new -153 -46 652 652;" xml:space="preserve">
<style type="text/css">
	.st0{fill:#6C6C6C;}
</style>
<rect x="272.8" y="165.2" class="st0" width="4.2" height="218.7"/>
<polygon class="st0" points="381.2,165.2 377,165.2 377,384 381.2,383.5 "/>
<rect x="169.3" y="165.2" class="st0" width="4.2" height="218.7"/>
<polygon class="st0" points="69.3,165.2 65.1,165.2 65.1,383.9 69.3,383.8 "/>
<rect x="-38.6" y="165.2" class="st0" width="4.2" height="218.7"/>
<g>
	<g>
		<path class="st0" d="M190.3,376.4v-27.5h8.6c0,24.7,14.1,30.5,25.9,30.5c17.2,0,22.8-12.1,22.8-19.3c0-1.7-0.9-10.5-9.6-16.6
			c-13.4-9.5-28.7-12.4-37.2-20.8c-6.7-6.6-9.9-12.1-9.9-21.3c0-21.2,15.3-30.1,33.8-30.1c4.8,0,16.4,1.1,29.3,4v27h-7
			c0-13.4-8.3-24.9-22.3-24.9c-7.6,0-19.6,5.4-19.6,17.4c0,7.6,6,13.7,10.3,15.9c11.2,5.7,21.7,11,32.6,17.7
			c5.3,3.2,13.6,12.3,13.6,26.8c0,21.7-18.3,30.9-36.8,30.9C206.7,386,190.3,376.4,190.3,376.4"/>
		<path class="st0" d="M408,335.9h24L420.7,298L408,335.9l-2.4,7.1l-9.6,28.6c-1.1,3.1,2,8,8.4,8l0,4.2c0,0-7.6-0.7-13.7-0.7
			c-6.7,0-13,0.7-13,0.7v-4.2c8.3-2.5,12.7-12.9,14.1-18l30.8-91.6h5.8l30.5,101.5c1.8,4.8,4.6,6.6,9.8,7.9c-0.1,0.1,0,4.3,0,4.3
			c-0.1,0-9.9-0.8-17-0.8c-7.1,0-17.1,0.8-17.1,0.8c0.1,0,0-4.2,0-4.3c3.7,0,10.2-2.7,8.3-7.9l-8.5-28.6h-28.5L408,335.9"/>
		<path class="st0" d="M-10.8,285.1c0-2.2-1.3-4.3-3.3-5.3l-6.5-2.6l0.1-5c0,0,21,0.6,26.1,0.6l20.3,0.2c17.9,0,25.1,13.6,25.1,26.9
			c0,18.7-13.2,25-22.6,28.9c11.5,3.4,15.6,11.1,19.6,21.5l5.5,17.3c1,2.6,2.1,5.1,3.3,7.7c1.2,2.6,6.2,4.4,9.9,4.4v4.2
			c0,0-17.9,1-22.1-2.3c-1.8-1.4-4.9-5.2-7.6-13.5l-6.3-22.7c-1.9-7.5-8.8-13.7-13.2-13.7l-0.1-5.1c3-0.3,18.4-2.5,18.4-26.7
			c0-11.5-8.3-21.1-15.7-21.1h-9.5c-3.1,0-6.1,2.6-6.1,6.5l0,41.4l12.9,0l0.1,5.1h-13v40.1c0,7,10.1,7.9,10.1,7.9l0,4.3
			c0,0-11.7-0.6-17.6-0.6c-5.8,0-17.5,0.6-17.5,0.6l0-4.2c0,0,9.8-0.9,9.8-8V285.1"/>
		<path class="st0" d="M-89,383.1c5.5,0,14,0.8,18.4,1.1v-5.1c-5.7,0-11.1-3-11.1-6.8l0-93.5c5,0,10.6,0.4,15.6,1.6
			c3.1,0.8,5.6,2.4,7.7,4.5c1.3,1.3,2,2.9,2.8,4.5c2.1,3.8,2.2,8,2.9,12.1h6.2l-2.3-29.4h-80.4l-2.3,29.4h6.2
			c0.8-4.1,0.8-8.3,2.9-12.1c0.9-1.6,1.5-3.2,2.8-4.5c2.2-2.2,4.6-3.8,7.7-4.5c5-1.3,10.6-1.6,15.6-1.6l0,93.5
			c0,3.8-5.5,6.8-11.1,6.8v5.1C-103,383.9-94.5,383.1-89,383.1"/>
		<path class="st0" d="M146.2,298.7c0-17.8-14.1-19.3-18.5-19.3h-7.9c-3.8,0-8.7,1.1-8.7,6.7v36.9l12.9,0c9.9,0,11.5-3.7,11.5-15.6
			h5.9c0,0-0.9,14.8-0.9,18.4s1,18.5,1,18.5h-5.9c0-11.9-1.6-15.6-11.4-15.6h-13V371c0,5.3,3.5,6.5,8.9,6.5h11.9
			c10.6,0,20-8.8,21.4-23.9h5.6l-4.1,30.2c0,0-28.3-0.6-34.2-0.6c-5.9,0-34.5,0.6-34.5,0.6l0-4.2c0,0,9.8-0.9,9.8-7.9l0-86.6
			c0-2.2-1.3-4.3-3.3-5.3l-6.5-2.6l0-5c0,0,28.2,0.7,33.9,0.7s30.3-0.7,30.3-0.7l1.5,26.5H146.2"/>
		<path class="st0" d="M352.2,306.6c0,24.5-18.6,26.5-21.4,26.5c-4.3,0-13.6-1.6-13.6-1.6v-46.8c0-3.8,6.6-6,10.7-6h5.2
			C349.5,278.7,352.2,301.1,352.2,306.6h16c0-33.7-23-34.4-37.9-34.4c0,0-19.6,0.7-23.4,0.7c-3.6,0-14.7-0.9-14.7-0.9l0,5.2l6.5,2.6
			c2,1,3.3,3.1,3.3,5.3l0,86.6c0,7.1-9.8,7.9-9.8,7.9l0,4.2c0,0,11.7-0.6,17.5-0.6c5.9,0,17.6,0.6,17.6,0.6l0-4.3
			c0,0-10.1-0.9-10.1-7.9v-33.9c2.7,0.4,12.2,1.3,19.2,1.3c10.6,0,31.8-7.8,31.8-32.4H352.2"/>
		<path class="st0" d="M465,260.3c0,6-4.8,10.8-10.8,10.8c-6,0-10.8-4.8-10.8-10.8c0-6,4.9-10.8,10.8-10.8
			C460.1,249.4,465,254.3,465,260.3h2.3c0-7.2-5.9-13.1-13.1-13.1c-7.3,0-13.1,5.9-13.1,13.1c0,7.2,5.9,13.1,13.1,13.1
			c7.2,0,13.1-5.9,13.1-13.1H465"/>
		<path class="st0" d="M461.5,267.1h-2.9l-5.6-5.9h-1v5.9h-2.4v-14h2.9c1.7,0,3.5,0,5,0.7c1.6,0.7,2.5,2,2.5,3.3
			c0,2-1.8,3.7-4.6,3.9L461.5,267.1z M452,259.7h0.7c2.4,0,5-0.3,5-2.6c0-2.2-2.8-2.5-5.2-2.5H452V259.7"/>
	</g>
</g>
</svg>
